<svg width="74" height="89" viewBox="0 0 74 89" fill="none" xmlns="http://www.w3.org/2000/svg">
<g opacity="0.1">
<path d="M59.5869 63.9249C59.5869 66.4609 49.8425 68.5167 37.8222 68.5167C25.8019 68.5167 16.0575 66.4609 16.0575 63.9249C16.0575 61.3889 25.8019 59.333 37.8222 59.333C49.8425 59.333 59.5869 61.3889 59.5869 63.9249Z" fill="#31353A"/>
<path d="M37.8222 70.3207L23.0533 67.2868H52.5911L37.8222 70.3207Z" fill="#31353A"/>
</g>
<path d="M56 40.3134C56 52.0845 46.8218 61.6269 35.5 61.6269C24.1782 61.6269 15 52.0845 15 40.3134C15 28.5423 24.1782 19 35.5 19C46.8218 19 56 28.5423 56 40.3134Z" fill="#C79791"/>
<path d="M35.5 70L21.5893 55.9179H49.4107L35.5 70Z" fill="#C79791"/>
<path fill-rule="evenodd" clip-rule="evenodd" d="M36.8662 26.3701H35.6203V27.6776H36.8662V26.3701ZM33.7591 46.6381L32.5132 47.9456V54.938H33.7591V46.6381ZM38.112 54.938H36.8662V46.5746L34.3795 45.0607L31.8928 47.6703V54.9327H30.647V45.2883L35.6203 40.0639V28.3286H39.3529V29.6361H38.112V54.938Z" fill="white"/>
</svg>
